<svg width="32" height="32" viewBox="0 0 32 32" fill="none" xmlns="http://www.w3.org/2000/svg">
<g clip-path="url(#clip0_40_244)">
<path d="M14.6666 22.6667H17.3333V17.3334H22.6666V14.6667H17.3333V9.33335H14.6666V14.6667H9.33329V17.3334H14.6666V22.6667ZM16 29.3334C14.1555 29.3334 12.4222 28.9889 10.8 28.3C9.17774 27.5889 7.76663 26.6334 6.56663 25.4334C5.36663 24.2334 4.41107 22.8222 3.69996 21.2C3.01107 19.5778 2.66663 17.8445 2.66663 16C2.66663 14.1556 3.01107 12.4222 3.69996 10.8C4.41107 9.1778 5.36663 7.76669 6.56663 6.56669C7.76663 5.36669 9.17774 4.42224 10.8 3.73335C12.4222 3.02224 14.1555 2.66669 16 2.66669C17.8444 2.66669 19.5777 3.02224 21.2 3.73335C22.8222 4.42224 24.2333 5.36669 25.4333 6.56669C26.6333 7.76669 27.5777 9.1778 28.2666 10.8C28.9777 12.4222 29.3333 14.1556 29.3333 16C29.3333 17.8445 28.9777 19.5778 28.2666 21.2C27.5777 22.8222 26.6333 24.2334 25.4333 25.4334C24.2333 26.6334 22.8222 27.5889 21.2 28.3C19.5777 28.9889 17.8444 29.3334 16 29.3334ZM16 26.6667C18.9777 26.6667 21.5 25.6334 23.5666 23.5667C25.6333 21.5 26.6666 18.9778 26.6666 16C26.6666 13.0222 25.6333 10.5 23.5666 8.43335C21.5 6.36669 18.9777 5.33335 16 5.33335C13.0222 5.33335 10.5 6.36669 8.43329 8.43335C6.36663 10.5 5.33329 13.0222 5.33329 16C5.33329 18.9778 6.36663 21.5 8.43329 23.5667C10.5 25.6334 13.0222 26.6667 16 26.6667Z" fill="#847AE8"/>
</g>
<defs>
<clipPath id="clip0_40_244">
<rect width="32" height="32" fill="white"/>
</clipPath>
</defs>
</svg>
